# xmcd CD database file
#
# Track frame offsets:
#	150
#	14675
#	32225
#	47300
#	63950
#	80750
#	94550
#	110225
#	124400
#	148925
#	162500
#	173900
#
# Disc length: 2504 seconds
#
# Revision: 0
# Processed by: cddbd v1.5.2PL0 Copyright (c) Steve Scherf et al.
# Submitted via: CDex 1.51
#
DISCID=ab09c60c
DTITLE=Glen Jones - Son of the Soil
DYEAR=1900
DGENRE=Australian Country
TTITLE0=Son of the Soil
TTITLE1=Home in Dirranband
TTITLE2=Doreen
TTITLE3=Where the Mitchell Grass Once Grew
TTITLE4=Garage Sale
TTITLE5=Day To Dream
TTITLE6=Kosciusko
TTITLE7=For Old Times' Sake
TTITLE8=Old Triger
TTITLE9=Drought Cattle
TTITLE10=Grandfather's Wagonette
TTITLE11=Dew on the Gidgee Leaves
EXTD=
EXTT0=
EXTT1=
EXTT2=
EXTT3=
EXTT4=
EXTT5=
EXTT6=
EXTT7=
EXTT8=
EXTT9=
EXTT10=
EXTT11=
PLAYORDER=
